<?xml version="1.0" encoding="UTF-8" standalone="no"?>
<!-- Created with Inkscape (http://www.inkscape.org/) -->

<svg
   width="65.583595mm"
   height="38.447262mm"
   viewBox="0 0 65.583595 38.447262"
   version="1.1"
   id="svg242"
   inkscape:version="1.2.2 (b0a8486, 2022-12-01)"
   sodipodi:docname="herri.svg"
   xmlns:inkscape="http://www.inkscape.org/namespaces/inkscape"
   xmlns:sodipodi="http://sodipodi.sourceforge.net/DTD/sodipodi-0.dtd"
   xmlns="http://www.w3.org/2000/svg"
   xmlns:svg="http://www.w3.org/2000/svg">
  <sodipodi:namedview
     id="namedview244"
     pagecolor="#ffffff"
     bordercolor="#666666"
     borderopacity="1.0"
     inkscape:showpageshadow="2"
     inkscape:pageopacity="0.0"
     inkscape:pagecheckerboard="0"
     inkscape:deskcolor="#d1d1d1"
     inkscape:document-units="mm"
     showgrid="false"
     inkscape:zoom="0.2102413"
     inkscape:cx="413.81022"
     inkscape:cy="585.04204"
     inkscape:window-width="1397"
     inkscape:window-height="758"
     inkscape:window-x="20"
     inkscape:window-y="26"
     inkscape:window-maximized="0"
     inkscape:current-layer="layer1" />
  <defs
     id="defs239" />
  <g
     inkscape:label="Ebene 1"
     inkscape:groupmode="layer"
     id="layer1"
     transform="translate(-13.659114,-58.198061)">
    <g
       aria-label="70"
       transform="scale(0.26458333)"
       id="text712"
       style="font-size:192px;white-space:pre">
      <path
         d="m 161.03125,250.52368 -63.1875,111.84375 h -40.125 l 65.625,-112.875 H 51.625 v -26.71875 h 109.40625 z"
         style="-inkscape-font-specification:'sans-serif Bold'"
         id="path718" />
      <path
         d="m 299.5,292.52368 q 0,17.625 -3.1875,31.59375 -3.1875,13.875 -9.9375,22.78125 -6.9375,9.09375 -17.8125,13.78125 -10.875,4.59375 -26.8125,4.59375 -15.65625,0 -26.71875,-4.6875 -11.0625,-4.6875 -17.90625,-13.875 -6.9375,-9.1875 -10.03125,-22.78125 Q 184,310.24243 184,292.61743 q 0,-18.1875 3.1875,-31.59375 3.1875,-13.40625 10.125,-22.6875 6.9375,-9.1875 18,-13.78125 11.0625,-4.59375 26.4375,-4.59375 16.03125,0 26.90625,4.78125 10.875,4.6875 17.8125,14.0625 6.84375,9.1875 9.9375,22.6875 3.09375,13.40625 3.09375,31.03125 z m -36.28125,0 q 0,-25.3125 -4.96875,-36 -4.96875,-10.78125 -16.5,-10.78125 -11.53125,0 -16.5,10.78125 -4.96875,10.6875 -4.96875,36.1875 0,24.84375 5.0625,35.8125 5.0625,10.96875 16.40625,10.96875 11.34375,0 16.40625,-10.96875 5.0625,-10.96875 5.0625,-36 z"
         style="-inkscape-font-specification:'sans-serif Bold'"
         id="path720" />
    </g>
  </g>
</svg>
